inDegrees=yes
name=ik_lifting_orientations
DataType=double
version=3
OpenSimVersion=4.5-2024-01-10-34fd6af
endheader
time	pelvis_tilt	pelvis_list	pelvis_rotation	pelvis_tx	pelvis_ty	pelvis_tz	hip_flexion_r	hip_adduction_r	hip_rotation_r	knee_angle_r	knee_angle_r_beta	ankle_angle_r	subtalar_angle_r	mtp_angle_r	hip_flexion_l	hip_adduction_l	hip_rotation_l	knee_angle_l	knee_angle_l_beta	ankle_angle_l	subtalar_angle_l	mtp_angle_l	lumbar_extension	lumbar_bending	lumbar_rotation	arm_flex_r	arm_add_r	arm_rot_r	elbow_flex_r	pro_sup_r	wrist_flex_r	wrist_dev_r	arm_flex_l	arm_add_l	arm_rot_l	elbow_flex_l	pro_sup_l	wrist_flex_l	wrist_dev_l
2.4	2.275015550099696	2.006992189742349	-98.92267243376978	0	0.9399999998679526	0	45.15190387174696	-10.47163141825964	0	60.22945424929998	1.051202283329574	-5.168975944487576	0	0	45.15190387174696	-10.47163141825964	0	60.22945424929998	1.051202283329574	-5.168975944487576	0	0	1.798884614122155	-1.835718144131503	57.40148303536245	123.1868208027757	-26.27222307163155	45.80788522645084	46.36231173593247	1.565862233838236	0	0	0	-11.09392574243661	0	88.45631554165315	1.565862233838236	0	0
2.41	2.491593631805402	2.225986276677509	-97.27917227863962	0	0.9399999998679526	0	45.15177865441632	-10.47028078870463	0	60.2293055835727	1.051199688623148	-5.168346020734513	0	0	45.15177865441632	-10.47028078870463	0	60.2293055835727	1.051199688623148	-5.168346020734513	0	0	1.828489550627393	-2.021236267283697	55.83093304180417	123.6302734616794	-26.29144548833029	45.84138859215385	46.60371505156432	1.564963015827157	0	0	0	-11.09557904694178	0	88.45720191699807	1.564963015827157	0	0
2.42	2.700107149762858	2.501674349170896	-95.2735199038658	0	0.9399999998679526	0	45.15166053047526	-10.46901080017108	0	60.22916522243003	1.051197238859067	-5.167754410845733	0	0	45.15166053047526	-10.46901080017108	0	60.22916522243003	1.051197238859067	-5.167754410845733	0	0	1.817767415546197	-2.214020618921134	53.90321533084511	124.1383405931427	-26.29822992686221	45.8706872967006	47.0165332074374	1.564114294883137	0	0	0	-11.09714006522052	0	88.45803851649484	1.564114294883137	0	0
2.43	2.876940886669451	2.738278040467746	-94.05751027870559	0	0.9399999998679526	0	45.15162120358522	-10.46858780495545	0	60.2291184297182	1.051196422172179	-5.167557252644049	0	0	45.15162120358522	-10.46858780495545	0	60.2291184297182	1.051196422172179	-5.167557252644049	0	0	1.858995151057638	-2.37111933123826	52.95913397114422	124.5885933255792	-26.24467395231787	45.94834335803037	47.24834688001585	1.563831601458801	0	0	0	-11.09766028908262	0	88.45831717249325	1.563831601458801	0	0
2.44	2.984231733512308	2.87237436636651	-93.32109946379015	0	0.9399999998679526	0	45.151580182545	-10.46814449212952	0	60.22906982681384	1.051195573891472	-5.167350464262454	0	0	45.151580182545	-10.46814449212952	0	60.22906982681384	1.051195573891472	-5.167350464262454	0	0	1.898328376395295	-2.464760137210018	52.57622469650968	125.0842047840246	-25.46853509480005	45.90188171757335	47.22586786085633	1.563537193864201	0	0	0	-11.09820133820853	0	88.45860737534399	1.563537193864201	0	0
2.45	2.939692369536366	2.824544690515831	-93.26534464254044	0	0.9399999998679526	0	45.15153967984253	-10.46770638892069	0	60.229021897976	1.051194737375446	-5.167146105663204	0	0	45.15153967984253	-10.46770638892069	0	60.229021897976	1.051194737375446	-5.167146105663204	0	0	1.858061898450756	-2.424189626903502	52.73270626757257	125.3604796668024	-24.75566462574935	45.71084200701169	47.07011021566659	1.563246628191023	0	0	0	-11.09873512426326	0	88.45889379113973	1.563246628191023	0	0
2.46	2.74120702357149	2.609184263543857	-93.60902760402456	0	0.9399999998679526	0	45.15150493554341	-10.46733111344527	0	60.22898075804522	1.051194019348199	-5.166971132964944	0	0	45.15150493554341	-10.46733111344527	0	60.22898075804522	1.051194019348199	-5.166971132964944	0	0	1.681921500682735	-2.249029892687055	53.15289462875147	125.4132744084701	-24.3522524963313	45.32659892220835	47.34696744931149	1.56299729872215	0	0	0	-11.0991932615168	0	88.45913955967215	1.56299729872215	0	0
2.47	2.512973861411358	2.393292478308766	-93.69622018300015	0	0.9399999998679526	0	45.1514664684392	-10.46691564651137	0	60.2289352263246	1.05119322466976	-5.166777447722176	0	0	45.1514664684392	-10.46691564651137	0	60.2289352263246	1.05119322466976	-5.166777447722176	0	0	1.461539710057443	-2.03275946721953	53.43447021916984	125.4850734432662	-24.19835223086732	45.14644340388838	47.45216642032118	1.562721277979898	0	0	0	-11.09970039806577	0	88.45941163827119	1.562721277979898	0	0
2.48	2.288615810795216	2.175153406128868	-93.7789793649801	0	0.9399999998679526	0	45.1514323923135	-10.46654780254812	0	60.22889489190153	1.051192520701276	-5.166606005430147	0	0	45.1514323923135	-10.46654780254812	0	60.22889489190153	1.051192520701276	-5.166606005430147	0	0	1.176353008618064	-1.809384421969495	53.67859213434724	125.7409511626901	-24.03892900843577	44.66934577271407	47.77909656466193	1.56247675160064	0	0	0	-11.10014968186654	0	88.45965267231212	1.56247675160064	0	0
2.49	2.210477177233366	2.121894031730861	-93.38505726045368	0	0.9399999998679526	0	45.15067325584405	-10.46082818384604	0	60.22776372668399	1.051172778143846	-5.164147419919724	0	0	45.15067325584405	-10.46082818384604	0	60.22776372668399	1.051172778143846	-5.164147419919724	0	0	1.048778279185626	-1.720214995979702	53.32788155320867	125.4720959637449	-24.55233984366105	43.61518578107526	47.7092702110327	1.556495827131855	0	0	0	-11.11198046647706	0	88.46554819609337	1.556495827131855	0	0
